<?xml version="1.0" encoding="UTF-8"?>
<svg width="120" height="160" viewBox="0 0 120 160" fill="none" xmlns="http://www.w3.org/2000/svg">
  <!-- Professor Avatar SVG -->
  
  <!-- Corpo -->
  <rect x="35" y="80" width="50" height="70" rx="10" fill="#3B82F6" stroke="#1E40AF" stroke-width="2"/>
  
  <!-- Cabeça -->
  <circle cx="60" cy="50" r="25" fill="#FBBF24" stroke="#F59E0B" stroke-width="2"/>
  
  <!-- Cabelo -->
  <path d="M35 40 Q60 25 85 40 Q85 30 75 25 Q60 20 45 25 Q35 30 35 40" fill="#8B4513"/>
  
  <!-- Olhos -->
  <circle cx="52" cy="45" r="3" fill="#1F2937"/>
  <circle cx="68" cy="45" r="3" fill="#1F2937"/>
  
  <!-- Nariz -->
  <circle cx="60" cy="52" r="1.5" fill="#F59E0B"/>
  
  <!-- Boca -->
  <path d="M55 58 Q60 62 65 58" stroke="#1F2937" stroke-width="2" fill="none"/>
  
  <!-- Braços -->
  <rect x="20" y="85" width="15" height="40" rx="7" fill="#FBBF24"/>
  <rect x="85" y="85" width="15" height="40" rx="7" fill="#FBBF24"/>
  
  <!-- Mãos -->
  <circle cx="27.5" cy="130" r="6" fill="#FBBF24"/>
  <circle cx="92.5" cy="130" r="6" fill="#FBBF24"/>
  
  <!-- Pernas -->
  <rect x="42" y="150" width="12" height="25" rx="6" fill="#1F2937"/>
  <rect x="66" y="150" width="12" height="25" rx="6" fill="#1F2937"/>
  
  <!-- Pés -->
  <ellipse cx="48" cy="180" rx="8" ry="4" fill="#000000"/>
  <ellipse cx="72" cy="180" rx="8" ry="4" fill="#000000"/>
  
  <!-- Óculos -->
  <circle cx="52" cy="45" r="8" fill="none" stroke="#1F2937" stroke-width="2"/>
  <circle cx="68" cy="45" r="8" fill="none" stroke="#1F2937" stroke-width="2"/>
  <line x1="60" y1="45" x2="60" y2="45" stroke="#1F2937" stroke-width="2"/>
  
  <!-- Gravata -->
  <polygon points="60,75 55,80 60,95 65,80" fill="#DC2626"/>
</svg> 